<svg width="256" height="256" viewBox="0 0 256 256" fill="none" xmlns="http://www.w3.org/2000/svg">
<g filter="url(#filter0_d_520_12)">
<path fill-rule="evenodd" clip-rule="evenodd" d="M232 88.7796C232 86.3104 232.001 83.8409 231.986 81.3714C231.973 79.2912 231.949 77.2115 231.893 75.1322C231.771 70.6004 231.503 66.0297 230.697 61.5484C229.88 57.0025 228.545 52.7715 226.442 48.6411C224.374 44.5813 221.673 40.8664 218.45 37.6457C215.228 34.425 211.512 31.7255 207.45 29.6589C203.316 27.5549 199.08 26.2206 194.529 25.4035C190.047 24.5988 185.475 24.3319 180.944 24.2095C178.863 24.1532 176.782 24.1295 174.701 24.1166C172.23 24.1015 169.759 24.1027 167.289 24.1027L138.601 24H117.145L88.9649 24.1027C86.4894 24.1027 84.0139 24.1015 81.5383 24.1166C79.4528 24.1295 77.3683 24.1532 75.2835 24.2095C70.7411 24.3319 66.1588 24.599 61.6664 25.4048C57.1094 26.2216 52.8676 27.5554 48.7273 29.6579C44.6575 31.7247 40.9334 34.4244 37.7044 37.6457C34.4759 40.8661 31.7697 44.5803 29.698 48.6393C27.5887 52.7718 26.2514 57.0052 25.432 61.5537C24.6253 66.0333 24.3579 70.6024 24.235 75.1322C24.179 77.2117 24.1547 79.2914 24.1421 81.3714C24.127 83.8412 24 86.9089 24 89.3784L24.0008 117.168L24 138.854L24.1282 167.234C24.1282 169.707 24.1272 172.18 24.1421 174.652C24.1547 176.735 24.179 178.818 24.2353 180.9C24.3579 185.438 24.6258 190.015 25.4333 194.502C26.2524 199.054 27.5895 203.291 29.697 207.427C31.7689 211.493 34.4757 215.212 37.7044 218.438C40.9332 221.663 44.6562 224.366 48.7253 226.436C52.8681 228.542 57.1119 229.878 61.6717 230.696C66.1621 231.502 70.7429 231.77 75.2835 231.892C77.3683 231.949 79.453 231.972 81.5386 231.985C84.0141 232 86.4894 231.999 88.9649 231.999L117.4 232H138.909L167.289 231.999C169.759 231.999 172.23 232 174.701 231.985C176.782 231.972 178.863 231.949 180.944 231.892C185.477 231.77 190.051 231.502 194.535 230.695C199.083 229.877 203.316 228.542 207.449 226.436C211.511 224.367 215.227 221.663 218.45 218.438C221.672 215.213 224.373 211.494 226.441 207.429C228.546 203.291 229.881 199.052 230.698 194.497C231.504 190.011 231.771 185.436 231.893 180.9C231.949 178.818 231.973 176.735 231.986 174.652C232.001 172.18 232 169.707 232 167.234C232 167.234 231.998 139.355 231.998 138.854V117.145C231.998 116.775 232 88.7796 232 88.7796" fill="white"/>
</g>
<g filter="url(#filter1_f_520_12)">
<path d="M160.172 98.4261C156.612 98.4261 153.782 95.6569 152.253 92.4415C150.863 89.5162 148.685 87.0786 145.72 85.1288C140.921 81.9735 135.035 80.3958 128.062 80.3958C122.964 80.3958 118.503 81.2222 114.679 82.875C110.893 84.5278 107.931 86.8003 105.794 89.6927C103.695 92.5851 102.645 95.8718 102.645 99.553C102.645 102.633 103.376 105.281 104.838 107.498C106.338 109.676 108.25 111.498 110.574 112.963C112.898 114.39 115.335 115.574 117.884 116.513C120.433 117.414 122.776 118.147 124.913 118.71L136.61 121.866C139.609 122.654 142.945 123.744 146.619 125.134C150.331 126.523 153.873 128.42 157.247 130.824C160.659 133.191 163.47 136.233 165.682 139.952C167.894 143.671 169 148.235 169 153.644C169 159.879 167.369 165.514 164.108 170.547C160.884 175.581 156.16 179.581 149.937 182.549C143.751 185.516 136.235 187 127.388 187C119.14 187 111.998 185.667 105.963 183C99.9645 180.333 95.241 176.614 91.792 171.843C89.8294 169.099 88.3569 166.099 87.3745 162.845C86.1622 158.83 89.5676 155.222 93.7623 155.222C97.5143 155.222 100.455 158.201 101.96 161.638C102.672 163.263 103.613 164.73 104.782 166.04C107.369 168.857 110.63 170.961 114.566 172.35C118.54 173.703 122.814 174.379 127.388 174.379C132.711 174.379 137.491 173.515 141.727 171.787C145.963 170.021 149.318 167.58 151.793 164.462C154.267 161.307 155.504 157.626 155.504 153.419C155.504 149.587 154.436 146.469 152.299 144.065C150.162 141.661 147.35 139.708 143.864 138.205C140.377 136.703 136.61 135.388 132.561 134.261L118.39 130.205C109.393 127.613 102.27 123.913 97.0217 119.105C91.7733 114.297 89.1491 108.005 89.1491 100.229C89.1491 93.7683 90.8923 88.1338 94.3787 83.3258C97.9027 78.4801 102.626 74.7238 108.549 72.0568C114.51 69.3523 121.164 68 128.512 68C135.935 68 142.533 69.3335 148.306 72.0005C154.079 74.6299 158.653 78.2359 162.027 82.8187C163.976 85.4371 165.399 88.258 166.296 91.2811C167.424 95.085 164.14 98.4261 160.172 98.4261Z" fill="#7E22CE"/>
</g>
<path d="M162.172 99.4261C158.612 99.4261 155.782 96.6569 154.253 93.4415C152.863 90.5162 150.685 88.0786 147.72 86.1288C142.921 82.9735 137.035 81.3958 130.062 81.3958C124.964 81.3958 120.503 82.2222 116.679 83.875C112.893 85.5278 109.931 87.8003 107.794 90.6927C105.695 93.5851 104.645 96.8718 104.645 100.553C104.645 103.633 105.376 106.281 106.838 108.498C108.338 110.676 110.25 112.498 112.574 113.963C114.898 115.39 117.335 116.574 119.884 117.513C122.433 118.414 124.776 119.147 126.913 119.71L138.61 122.866C141.609 123.654 144.945 124.744 148.619 126.134C152.331 127.523 155.873 129.42 159.247 131.824C162.659 134.191 165.47 137.233 167.682 140.952C169.894 144.671 171 149.235 171 154.644C171 160.879 169.369 166.514 166.108 171.547C162.884 176.581 158.16 180.581 151.937 183.549C145.751 186.516 138.235 188 129.388 188C121.14 188 113.998 186.667 107.963 184C101.965 181.333 97.241 177.614 93.792 172.843C91.8294 170.099 90.3569 167.099 89.3745 163.845C88.1622 159.83 91.5676 156.222 95.7623 156.222C99.5143 156.222 102.455 159.201 103.96 162.638C104.672 164.263 105.613 165.73 106.782 167.04C109.369 169.857 112.63 171.961 116.566 173.35C120.54 174.703 124.814 175.379 129.388 175.379C134.711 175.379 139.491 174.515 143.727 172.787C147.963 171.021 151.318 168.58 153.793 165.462C156.267 162.307 157.504 158.626 157.504 154.419C157.504 150.587 156.436 147.469 154.299 145.065C152.162 142.661 149.35 140.708 145.864 139.205C142.377 137.703 138.61 136.388 134.561 135.261L120.39 131.205C111.393 128.613 104.27 124.913 99.0217 120.105C93.7733 115.297 91.1491 109.005 91.1491 101.229C91.1491 94.7683 92.8923 89.1338 96.3787 84.3258C99.9027 79.4801 104.626 75.7238 110.549 73.0568C116.51 70.3523 123.164 69 130.512 69C137.935 69 144.533 70.3335 150.306 73.0005C156.079 75.6299 160.653 79.2359 164.027 83.8187C165.976 86.4371 167.399 89.258 168.296 92.2811C169.424 96.085 166.14 99.4261 162.172 99.4261Z" fill="white" fill-opacity="0.2"/>
<defs>
<filter id="filter0_d_520_12" x="21.5" y="24" width="213" height="213" filterUnits="userSpaceOnUse" color-interpolation-filters="sRGB">
<feFlood flood-opacity="0" result="BackgroundImageFix"/>
<feColorMatrix in="SourceAlpha" type="matrix" values="0 0 0 0 0 0 0 0 0 0 0 0 0 0 0 0 0 0 127 0" result="hardAlpha"/>
<feOffset dy="2.5"/>
<feGaussianBlur stdDeviation="1.25"/>
<feColorMatrix type="matrix" values="0 0 0 0 0 0 0 0 0 0 0 0 0 0 0 0 0 0 0.3 0"/>
<feBlend mode="normal" in2="BackgroundImageFix" result="effect1_dropShadow_520_12"/>
<feBlend mode="normal" in="SourceGraphic" in2="effect1_dropShadow_520_12" result="shape"/>
</filter>
<filter id="filter1_f_520_12" x="81.1263" y="62" width="93.8737" height="131" filterUnits="userSpaceOnUse" color-interpolation-filters="sRGB">
<feFlood flood-opacity="0" result="BackgroundImageFix"/>
<feBlend mode="normal" in="SourceGraphic" in2="BackgroundImageFix" result="shape"/>
<feGaussianBlur stdDeviation="3" result="effect1_foregroundBlur_520_12"/>
</filter>
</defs>
</svg>
